<svg width="249" height="110" viewBox="0 0 249 110" fill="none" xmlns="http://www.w3.org/2000/svg">
<path d="M207.491 74.3278C208.168 84.5571 210.467 91.1262 214.41 94.0321C220.324 98.3909 227.517 96.7554 231.242 91.833C234.967 86.9106 234.513 79.6384 228.599 75.2799C224.657 72.374 217.622 72.0634 207.491 74.3278ZM219.382 90.3943C219.71 89.9607 218.893 90.1612 219.382 90.3943C222.382 91.8569 227.198 91.3349 228.273 89.6449C228.631 89.1232 227.763 89.2683 228.273 89.6449C228.748 89.9948 228.247 88.3839 227.916 88.8702C226.181 91.4805 223.929 91.7923 219.825 89.8083C219.22 89.508 218.974 90.9333 219.382 90.3943Z" fill="#0F83AD"/>
<path d="M191.53 77.1688C191.846 81.9424 192.918 85.0078 194.758 86.3641C197.518 88.3982 200.875 87.635 202.613 85.3378C204.352 83.0407 204.14 79.6471 201.38 77.613C199.54 76.257 196.257 76.1121 191.53 77.1688ZM197.079 84.6664C196.85 84.5575 197.232 84.4639 197.079 84.6664C198.479 85.3488 200.726 85.1054 201.228 84.3167C200.99 84.1409 201.395 84.0733 201.228 84.3167C201.45 84.4801 201.216 83.7283 201.061 83.9551C200.252 85.1733 199.201 85.3189 197.286 84.393C197.003 84.2528 196.888 84.918 197.079 84.6664Z" fill="#0F83AD"/>
<path d="M209.906 57.1206C210.267 62.5762 211.493 66.0798 213.596 67.6296C216.75 69.9541 220.587 69.0821 222.573 66.4568C224.56 63.8314 224.318 59.953 221.164 57.6283C219.061 56.0787 215.309 55.913 209.906 57.1206ZM216.248 65.6894C215.987 65.5651 216.423 65.4582 216.248 65.6894C217.848 66.4695 220.416 66.1912 220.99 65.2897C220.717 65.0891 221.181 65.0116 220.99 65.2897C221.243 65.4764 220.976 64.6173 220.799 64.8766C219.874 66.2687 218.673 66.4351 216.484 65.377C216.161 65.2169 216.03 65.9771 216.248 65.6894Z" fill="#0F83AD"/>
<path d="M42.643 70.2127H33.679L13.382 39.944V70.2127H4.41798V26.0419H13.382L33.679 56.3738V26.0419H42.643V70.2127ZM67.2525 70.7815C63.8377 70.7815 60.7643 70.0442 58.0324 68.5698C55.3005 67.0532 53.1449 64.9257 51.5655 62.1874C50.0288 59.4491 49.2605 56.2896 49.2605 52.7087C49.2605 49.1279 50.0502 45.9683 51.6296 43.23C53.2516 40.4917 55.4499 38.3853 58.2245 36.9108C60.9991 35.3942 64.0938 34.6359 67.5086 34.6359C70.9235 34.6359 74.0182 35.3942 76.7928 36.9108C79.5674 38.3853 81.7443 40.4917 83.3237 43.23C84.9458 45.9683 85.7568 49.1279 85.7568 52.7087C85.7568 56.2896 84.9244 59.4491 83.2597 62.1874C81.6376 64.9257 79.418 67.0532 76.6007 68.5698C73.8261 70.0442 70.7101 70.7815 67.2525 70.7815ZM67.2525 63.0721C68.8746 63.0721 70.3899 62.693 71.7986 61.9347C73.2499 61.1342 74.4024 59.9547 75.2561 58.3959C76.1098 56.8372 76.5367 54.9415 76.5367 52.7087C76.5367 49.3806 75.6403 46.8319 73.8475 45.0625C72.0974 43.251 69.9417 42.3453 67.3806 42.3453C64.8194 42.3453 62.6638 43.251 60.9137 45.0625C59.2063 46.8319 58.3526 49.3806 58.3526 52.7087C58.3526 56.0368 59.1849 58.6066 60.8497 60.4181C62.5571 62.1874 64.6914 63.0721 67.2525 63.0721ZM108.596 42.4717H102.385V70.2127H93.2927V42.4717H89.2589V35.2047H93.2927V33.4353C93.2927 29.1383 94.5306 25.9787 97.0064 23.9566C99.4821 21.9344 103.217 20.9866 108.211 21.113V28.5696C106.034 28.5274 104.519 28.8855 103.665 29.6438C102.812 30.4021 102.385 31.7713 102.385 33.7513V35.2047H108.596V42.4717ZM112.1 52.5823C112.1 49.0436 112.804 45.9051 114.213 43.1668C115.664 40.4285 117.606 38.3221 120.039 36.8476C122.515 35.3732 125.268 34.6359 128.299 34.6359C130.945 34.6359 133.25 35.1625 135.214 36.2157C137.22 37.2689 138.821 38.5959 140.016 40.1968V35.2047H149.044V70.2127H140.016V65.0942C138.864 66.7372 137.263 68.1064 135.214 69.2017C133.208 70.2549 130.881 70.7815 128.235 70.7815C125.247 70.7815 122.515 70.0232 120.039 68.5066C117.606 66.99 115.664 64.8625 114.213 62.1242C112.804 59.3438 112.1 56.1632 112.1 52.5823ZM140.016 52.7087C140.016 50.5602 139.589 48.7276 138.735 47.211C137.882 45.6523 136.729 44.4727 135.278 43.6723C133.827 42.8298 132.269 42.4085 130.604 42.4085C128.939 42.4085 127.402 42.8087 125.994 43.6091C124.585 44.4096 123.433 45.5891 122.536 47.1479C121.683 48.6645 121.256 50.4759 121.256 52.5823C121.256 54.6887 121.683 56.5423 122.536 58.1432C123.433 59.7019 124.585 60.9025 125.994 61.7451C127.445 62.5876 128.982 63.0089 130.604 63.0089C132.269 63.0089 133.827 62.6087 135.278 61.8083C136.729 60.9657 137.882 59.7862 138.735 58.2696C139.589 56.7108 140.016 54.8572 140.016 52.7087ZM166.763 40.26C167.915 38.6591 169.495 37.3321 171.501 36.2789C173.55 35.1836 175.876 34.6359 178.48 34.6359C181.511 34.6359 184.243 35.3732 186.676 36.8476C189.152 38.3221 191.094 40.4285 192.502 43.1668C193.954 45.863 194.679 49.0015 194.679 52.5823C194.679 56.1632 193.954 59.3438 192.502 62.1242C191.094 64.8625 189.152 66.99 186.676 68.5066C184.243 70.0232 181.511 70.7815 178.48 70.7815C175.876 70.7815 173.571 70.2549 171.565 69.2017C169.601 68.1485 168.001 66.8215 166.763 65.2206V86.8953H157.799V35.2047H166.763V40.26ZM185.523 52.5823C185.523 50.4759 185.075 48.6645 184.179 47.1479C183.325 45.5891 182.172 44.4096 180.721 43.6091C179.312 42.8087 177.776 42.4085 176.111 42.4085C174.489 42.4085 172.952 42.8298 171.501 43.6723C170.092 44.4727 168.94 45.6523 168.043 47.211C167.19 48.7698 166.763 50.6023 166.763 52.7087C166.763 54.8151 167.19 56.6476 168.043 58.2064C168.94 59.7651 170.092 60.9657 171.501 61.8083C172.952 62.6087 174.489 63.0089 176.111 63.0089C177.776 63.0089 179.312 62.5876 180.721 61.7451C182.172 60.9025 183.325 59.7019 184.179 58.1432C185.075 56.5844 185.523 54.7308 185.523 52.5823Z" fill="#0F83AD"/>
</svg>
